HIERARCHY
ROOT joint_Root
{
	OFFSET 0.0 0.0 0.0
	CHANNELS 6 Xposition Yposition Zposition Zrotation Xrotation Yrotation 
	JOINT Hips
	{
		OFFSET -17.1583 93.1646 452.98
		CHANNELS 6 Xposition Yposition Zposition Zrotation Xrotation Yrotation 
		JOINT Spine
		{
			OFFSET 15.7357 0.0 0.0
			CHANNELS 6 Xposition Yposition Zposition Zrotation Xrotation Yrotation 
			JOINT Chest
			{
				OFFSET 8.98455 -0.406207 0.0
				CHANNELS 6 Xposition Yposition Zposition Zrotation Xrotation Yrotation 
				JOINT Neck
				{
					OFFSET 16.3773 0.0 0.0
					CHANNELS 6 Xposition Yposition Zposition Zrotation Xrotation Yrotation 
					JOINT Head
					{
						OFFSET 6.45672 0.0 0.0
						CHANNELS 6 Xposition Yposition Zposition Zrotation Xrotation Yrotation 
						End Site
						{
							OFFSET 0.0 0.0 0.0
						}
					}
				}
				JOINT Shoulder_L
				{
					OFFSET 12.9942 -0.242716 4.98039
					CHANNELS 6 Xposition Yposition Zposition Zrotation Xrotation Yrotation 
					JOINT UpperArm_L
					{
						OFFSET 5.34809 0.0 0.0
						CHANNELS 6 Xposition Yposition Zposition Zrotation Xrotation Yrotation 
						JOINT LowerArm_L
						{
							OFFSET 24.3286 1.87007e-05 0.0
							CHANNELS 6 Xposition Yposition Zposition Zrotation Xrotation Yrotation 
							JOINT Hand_L
							{
								OFFSET 22.2916 0.0 0.0
								CHANNELS 6 Xposition Yposition Zposition Zrotation Xrotation Yrotation 
								End Site
								{
									OFFSET 0.0 0.0 0.0
								}
							}
						}
					}
				}
				JOINT Shoulder_R
				{
					OFFSET 12.9945 -0.242716 -4.98039
					CHANNELS 6 Xposition Yposition Zposition Zrotation Xrotation Yrotation 
					JOINT UpperArm_R
					{
						OFFSET -5.34813 0.0 0.0
						CHANNELS 6 Xposition Yposition Zposition Zrotation Xrotation Yrotation 
						JOINT LowerArm_R
						{
							OFFSET -24.3289 0.000322201 0.0
							CHANNELS 6 Xposition Yposition Zposition Zrotation Xrotation Yrotation 
							JOINT Hand_R
							{
								OFFSET -22.2915 -0.000108084 0.0
								CHANNELS 6 Xposition Yposition Zposition Zrotation Xrotation Yrotation 
								End Site
								{
									OFFSET 0.0 0.0 0.0
								}
							}
						}
					}
				}
			}
		}
		JOINT UpperLeg_L
		{
			OFFSET -2.19248 -6.46944 0.0
			CHANNELS 6 Xposition Yposition Zposition Zrotation Xrotation Yrotation 
			JOINT LowerLeg_L
			{
				OFFSET 39.0811 0.0 -1.23785e-05
				CHANNELS 6 Xposition Yposition Zposition Zrotation Xrotation Yrotation 
				JOINT Foot_L
				{
					OFFSET 40.9854 0.0 -1.26872e-05
					CHANNELS 6 Xposition Yposition Zposition Zrotation Xrotation Yrotation 
					JOINT Toes_L
					{
						OFFSET 11.7543 0.0 0.0
						CHANNELS 6 Xposition Yposition Zposition Zrotation Xrotation Yrotation 
						End Site
						{
							OFFSET 0.0 0.0 0.0
						}
					}
				}
			}
		}
		JOINT UpperLeg_R
		{
			OFFSET -2.19251 6.46944 0.0
			CHANNELS 6 Xposition Yposition Zposition Zrotation Xrotation Yrotation 
			JOINT LowerLeg_R
			{
				OFFSET -39.0811 -0.00228153 -0.0401928
				CHANNELS 6 Xposition Yposition Zposition Zrotation Xrotation Yrotation 
				JOINT Foot_R
				{
					OFFSET -40.9854 0.0 0.0
					CHANNELS 6 Xposition Yposition Zposition Zrotation Xrotation Yrotation 
					JOINT Toes_R
					{
						OFFSET -11.7543 0.0 0.0
						CHANNELS 6 Xposition Yposition Zposition Zrotation Xrotation Yrotation 
						End Site
						{
							OFFSET 0.0 0.0 0.0
						}
					}
				}
			}
		}
	}
}
MOTION
Frames:	8
Frame Time:	0.0333333
0.000000 0.000000 0.000000 0.000000 0.000000 -0.000000 194.512000 92.255500 -137.159000 90.382300 -2.045720 -0.516147 15.735700 0.000005 -0.000001 59.520000 85.748700 -58.717700 8.984550 -0.406207 -0.000000 -0.406212 -4.369110 1.588820 16.377300 -0.000001 -0.000001 2.630110 1.770560 -2.232650 6.456720 -0.000001 -0.000000 1.729480 2.301360 -2.460230 12.994200 -0.242716 4.980390 -92.707200 7.782920 -70.752700 5.348090 -0.000007 -0.000001 -73.151200 0.191480 -4.566920 24.328600 0.000019 0.000005 31.789500 29.428200 -51.587700 22.291600 -0.000001 0.000005 61.973700 4.162470 21.865900 12.994500 -0.242716 -4.980390 89.595300 1.228290 -71.763200 -5.348130 -0.000001 -0.000004 -72.204100 2.937490 6.484910 -24.328900 0.000322 -0.000009 0.138080 10.435300 -0.768591 -22.291500 -0.000108 -0.000004 41.450600 5.395310 -2.787230 -2.192480 -6.469440 -0.000000 175.637000 -13.752300 -3.950470 39.081100 -0.000007 -0.000012 0.101240 -0.261156 21.189500 40.985400 -0.000006 -0.000013 2.468050 24.203400 -76.237200 11.754300 -0.000000 0.000003 0.001777 0.128626 -11.360700 -2.192510 6.469440 -0.000001 177.169000 -0.723719 156.074000 -39.081100 -0.002282 -0.040193 0.036289 -0.014864 65.837200 -40.985400 0.000008 0.000006 -5.532130 -15.039200 -62.844100 -11.754300 -0.000006 -0.000006 -0.000849 0.180907 -9.235010
0.000000 0.000000 0.000000 0.000000 0.000000 -0.000000 194.351000 92.605000 -134.884000 89.269900 -0.597811 -1.146510 15.735700 0.000005 -0.000001 52.932800 85.558800 -51.697400 8.984550 -0.406207 -0.000000 -0.617624 -5.443070 2.441560 16.377300 -0.000001 -0.000001 2.869350 1.738000 -2.485330 6.456720 -0.000001 -0.000000 1.983720 2.737380 -2.598750 12.994200 -0.242716 4.980390 -92.598000 7.594270 -71.050500 5.348090 -0.000007 -0.000001 -72.771500 -2.390100 -5.893750 24.328600 0.000019 0.000005 38.720600 28.250900 -59.439300 22.291600 -0.000001 0.000005 63.072300 4.107710 22.675100 12.994500 -0.242716 -4.980390 89.734200 0.791976 -71.445300 -5.348130 -0.000001 -0.000004 -70.229100 0.550947 8.873870 -24.328900 0.000322 -0.000009 -0.001067 10.702300 0.000043 -22.291500 -0.000108 -0.000004 42.562900 5.370910 -2.018360 -2.192480 -6.469440 -0.000000 177.802000 -15.075900 -1.232570 39.081100 -0.000007 -0.000012 0.031415 -0.099356 17.546300 40.985400 -0.000006 -0.000013 -0.347864 27.882300 -73.470800 11.754300 -0.000000 0.000003 0.001436 0.138302 -10.968200 -2.192510 6.469440 -0.000001 178.258000 -2.731210 153.055000 -39.081100 -0.002282 -0.040193 0.007964 -0.002696 60.508500 -40.985400 0.000008 0.000006 -5.496040 -17.022900 -65.067700 -11.754300 -0.000006 -0.000006 -0.000405 0.174224 -9.506500
0.000000 0.000000 0.000000 0.000000 0.000000 -0.000000 194.152000 92.779400 -132.554000 88.469800 0.840670 -1.821100 15.735700 0.000005 -0.000001 47.802100 85.324000 -46.246200 8.984550 -0.406207 -0.000000 -0.748122 -6.395930 3.070980 16.377300 -0.000001 -0.000001 2.859600 1.685280 -2.527870 6.456720 -0.000001 -0.000000 2.123780 3.063360 -2.775020 12.994200 -0.242716 4.980390 -92.442300 7.288880 -71.418400 5.348090 -0.000007 -0.000001 -72.635900 -4.819960 -7.588670 24.328600 0.000019 0.000005 43.884200 26.815600 -64.870100 22.291600 -0.000001 0.000005 63.808700 4.053790 23.457200 12.994500 -0.242716 -4.980390 89.862600 0.401999 -71.131000 -5.348130 -0.000001 -0.000004 -68.117100 -1.970210 11.147000 -24.328900 0.000322 -0.000009 -0.001060 10.380500 0.000042 -22.291500 -0.000108 -0.000004 43.723500 5.360030 -1.685200 -2.192480 -6.469440 -0.000000 179.555000 -15.328900 1.462590 39.081100 -0.000007 -0.000012 0.005162 -0.021170 13.703900 40.985400 -0.000006 -0.000013 -3.443430 30.342900 -70.365600 11.754300 -0.000000 0.000003 0.001360 0.140254 -10.889000 -2.192510 6.469440 -0.000001 178.789000 -4.545440 151.042000 -39.081100 -0.002282 -0.040193 0.003662 -0.000323 52.786900 -40.985400 0.000008 0.000006 -5.494030 -17.434300 -66.401400 -11.754300 -0.000006 -0.000006 -0.000515 0.175930 -9.437230
0.000000 0.000000 0.000000 0.000000 0.000000 -0.000000 193.948000 92.763900 -130.157000 88.033200 2.042920 -2.497330 15.735700 0.000005 -0.000001 44.168200 85.148000 -42.479400 8.984550 -0.406207 -0.000000 -0.897541 -7.086800 3.323960 16.377300 -0.000001 -0.000001 2.808790 1.616550 -2.424750 6.456720 -0.000001 -0.000000 2.101140 3.265230 -2.675050 12.994200 -0.242716 4.980390 -92.296000 6.967950 -71.711700 5.348090 -0.000007 -0.000001 -72.521700 -6.862930 -9.472440 24.328600 0.000019 0.000005 46.407400 25.326500 -67.840500 22.291600 -0.000001 0.000005 64.382600 4.018770 23.959200 12.994500 -0.242716 -4.980390 89.912800 0.251812 -70.897400 -5.348130 -0.000001 -0.000004 -66.222000 -3.651960 13.245100 -24.328900 0.000322 -0.000009 -0.001052 9.758880 0.000039 -22.291500 -0.000108 -0.000004 44.987700 5.343010 -1.171760 -2.192480 -6.469440 -0.000000 -179.052000 -15.661700 4.540230 39.081100 -0.000007 -0.000012 0.003560 -0.021899 9.236360 40.985400 -0.000006 -0.000013 -6.474490 32.553300 -67.042500 11.754300 -0.000000 0.000003 0.001649 0.132483 -11.204300 -2.192510 6.469440 -0.000001 178.606000 -6.050450 149.947000 -39.081100 -0.002282 -0.040193 0.021891 -0.019749 43.317200 -40.985400 0.000008 0.000006 -6.091380 -14.586800 -65.790700 -11.754300 -0.000006 -0.000006 -0.000320 0.172887 -9.560840
0.000000 0.000000 0.000000 0.000000 0.000000 -0.000000 193.709000 92.513600 -127.584000 87.794100 2.886560 -3.174260 15.735700 0.000005 -0.000001 41.464900 85.066900 -39.762700 8.984550 -0.406207 -0.000000 -1.119790 -7.523710 3.333270 16.377300 -0.000001 -0.000001 2.767600 1.519210 -2.150590 6.456720 -0.000001 -0.000000 2.047130 3.385240 -2.501500 12.994200 -0.242716 4.980390 -92.163100 6.685540 -72.024800 5.348090 -0.000007 -0.000001 -72.456600 -8.681650 -11.005300 24.328600 0.000019 0.000005 47.679900 24.192000 -69.536800 22.291600 -0.000001 0.000005 64.545800 3.995150 24.295600 12.994500 -0.242716 -4.980390 89.978000 0.062812 -70.737000 -5.348130 -0.000001 -0.000004 -64.834800 -4.833050 14.817400 -24.328900 0.000322 -0.000009 -0.001066 10.008500 0.000040 -22.291500 -0.000108 -0.000004 45.851600 5.338890 -1.047090 -2.192480 -6.469440 -0.000000 -177.905000 -16.458600 7.411140 39.081100 -0.000007 -0.000012 0.006376 -0.064302 5.663220 40.985400 -0.000006 -0.000013 -7.471720 34.475200 -65.427500 11.754300 -0.000000 0.000003 0.001824 0.127112 -11.422100 -2.192510 6.469440 -0.000001 178.402000 -6.809050 149.659000 -39.081100 -0.002282 -0.040193 0.030819 -0.042912 32.675600 -40.985400 0.000008 0.000006 -6.598460 -10.180100 -64.076100 -11.754300 -0.000006 -0.000006 -0.000960 0.182502 -9.170180
0.000000 0.000000 0.000000 0.000000 0.000000 -0.000000 193.410000 92.052800 -124.808000 87.581200 3.526580 -3.874950 15.735700 0.000005 -0.000001 38.930500 85.013300 -37.233800 8.984550 -0.406207 -0.000000 -1.382300 -7.892140 3.301180 16.377300 -0.000001 -0.000001 2.544630 1.450580 -1.829180 6.456720 -0.000001 -0.000000 2.045710 3.553320 -2.363510 12.994200 -0.242716 4.980390 -92.111100 6.644320 -72.329000 5.348090 -0.000007 -0.000001 -72.226900 -10.250400 -11.851600 24.328600 0.000019 0.000005 48.533000 23.342800 -70.702200 22.291600 -0.000001 0.000005 64.175700 4.003290 24.179500 12.994500 -0.242716 -4.980390 90.026300 -0.075153 -70.714800 -5.348130 -0.000001 -0.000004 -63.675700 -6.337530 15.906400 -24.328900 0.000322 -0.000009 -0.001029 10.507800 0.000042 -22.291500 -0.000108 -0.000004 46.149500 5.330120 -0.789142 -2.192480 -6.469440 -0.000000 -176.929000 -16.839500 9.023210 39.081100 -0.000007 -0.000012 0.005536 -0.063770 4.961820 40.985400 -0.000006 -0.000013 -5.866660 35.702200 -66.681700 11.754300 -0.000000 0.000003 0.002214 0.111590 -12.051600 -2.192510 6.469440 -0.000001 179.112000 -6.267840 149.910000 -39.081100 -0.002282 -0.040193 0.028441 -0.062476 21.906000 -40.985400 0.000008 0.000006 -7.062690 -8.768470 -61.788200 -11.754300 -0.000006 -0.000006 -0.001039 0.183631 -9.124280
0.000000 0.000000 0.000000 0.000000 0.000000 -0.000000 193.115000 91.398600 -121.664000 87.570200 4.313210 -4.285900 15.735700 0.000005 -0.000001 36.914300 84.852700 -35.278400 8.984550 -0.406207 -0.000000 -1.464720 -8.360870 3.168240 16.377300 -0.000001 -0.000001 2.134870 1.361200 -1.550210 6.456720 -0.000001 -0.000000 1.965040 3.665050 -2.167680 12.994200 -0.242716 4.980390 -92.134300 6.844270 -72.634500 5.348090 -0.000007 -0.000001 -71.725300 -11.075500 -12.043100 24.328600 0.000019 0.000005 49.369900 23.098200 -71.396400 22.291600 -0.000001 0.000005 64.023700 4.003230 24.180600 12.994500 -0.242716 -4.980390 89.976500 0.066668 -70.619800 -5.348130 -0.000001 -0.000004 -62.699700 -7.644500 16.352400 -24.328900 0.000322 -0.000009 -0.001051 10.374400 0.000042 -22.291500 -0.000108 -0.000004 46.229900 5.322090 -0.555275 -2.192480 -6.469440 -0.000000 -176.292000 -15.701300 9.809290 39.081100 -0.000007 -0.000012 0.003439 -0.029413 6.669320 40.985400 -0.000006 -0.000013 -3.587940 35.403800 -69.010500 11.754300 -0.000000 0.000003 0.002396 0.099880 -12.526400 -2.192510 6.469440 -0.000001 -179.317000 -4.256600 150.846000 -39.081100 -0.002282 -0.040193 0.021921 -0.081875 12.790100 -40.985400 0.000008 0.000006 -7.160910 -9.193090 -60.503600 -11.754300 -0.000006 -0.000006 -0.000971 0.182667 -9.163490
0.000000 0.000000 0.000000 0.000000 0.000000 -0.000000 192.832000 90.747500 -118.039000 87.653900 5.308690 -4.433160 15.735700 0.000005 -0.000001 35.554800 84.664100 -33.986700 8.984550 -0.406207 -0.000000 -1.441610 -8.806260 3.029000 16.377300 -0.000001 -0.000001 1.734900 1.162420 -1.400130 6.456720 -0.000001 -0.000000 1.716490 3.560970 -1.933240 12.994200 -0.242716 4.980390 -92.170500 7.109070 -72.972800 5.348090 -0.000007 -0.000001 -71.234400 -10.873300 -11.621200 24.328600 0.000019 0.000005 50.161200 23.816300 -71.381400 22.291600 -0.000001 0.000005 63.675000 4.002260 24.194100 12.994500 -0.242716 -4.980390 89.849100 0.426761 -70.531300 -5.348130 -0.000001 -0.000004 -62.152300 -8.552500 16.233100 -24.328900 0.000322 -0.000009 -0.001038 10.428400 0.000042 -22.291500 -0.000108 -0.000004 46.393300 5.321990 -0.553878 -2.192480 -6.469440 -0.000000 -175.365000 -15.152600 10.838800 39.081100 -0.000007 -0.000012 -0.001380 0.008788 8.923430 40.985400 -0.000006 -0.000013 -1.628720 35.900000 -70.382000 11.754300 -0.000000 0.000003 0.002382 0.066526 -13.878500 -2.192510 6.469440 -0.000001 -177.463000 -1.805660 151.505000 -39.081100 -0.002282 -0.040193 0.016673 -0.095850 7.917940 -40.985400 0.000008 0.000006 -7.383870 -8.942270 -60.682900 -11.754300 -0.000006 -0.000006 -0.000898 0.181614 -9.206280
